#N canvas 78 78 450 300 12;
#X obj 68 129 metro 0.25 120 permin;
#X floatatom 174 69 5 0 250 0 - - - 0;
#X obj 68 77 tgl 15 0 empty empty empty 17 7 0 10 #fcfcfc #000000 #000000
0 1;
#X obj 68 146 bng 100 250 50 0 empty empty empty 17 7 0 10 #fcfcfc
#000000 #000000;
#X msg 106 100 tempo \$1 permin;
#X connect 0 0 3 0;
#X connect 1 0 4 0;
#X connect 2 0 0 0;
#X connect 4 0 0 0;
