#N canvas 602 206 1366 725 12;
#X obj 37 19 cnv 15 300 300 empty empty empty 20 12 0 14 #e0e0e0 #404040
0;
#X obj 47 29 cnv 15 280 280 empty empty empty 20 12 0 14 #ffffff #404040
0;
#X obj 161 178 metro 0.25 120 permin;
#X floatatom 199 82 5 0 250 0 - - - 0;
#X obj 57 129 tgl 50 0 empty empty empty 17 7 0 10 #fcfcfc #000000
#000000 0 1;
#X obj 161 226 bng 50 250 50 0 empty empty empty 17 7 0 10 #fcfcfc
#000000 #000000;
#X msg 199 149 tempo \$1 permin;
#X text 174 83 BPM;
#X connect 2 0 5 0;
#X connect 3 0 6 0;
#X connect 4 0 2 0;
#X connect 6 0 2 0;
#X coords 0 217500 300 217200 0 0 0;
